<svg width="24" height="24" viewBox="0 0 24 24" fill="none" xmlns="http://www.w3.org/2000/svg">
<path d="M20.2653 12.2591C20.1849 12.0944 20.1849 11.9056 20.2653 11.741L21.0113 10.215C21.4266 9.36538 21.0975 8.35269 20.2621 7.90946L18.7618 7.11337C18.5999 7.02751 18.4889 6.8747 18.4572 6.69428L18.1638 5.02129C18.0004 4.08981 17.1388 3.46388 16.2026 3.59634L14.5208 3.83423C14.3393 3.85986 14.1598 3.8015 14.0281 3.67412L12.8074 2.49319C12.1277 1.83562 11.0629 1.83558 10.3832 2.49319L9.16243 3.67423C9.03071 3.80165 8.85122 3.8599 8.66973 3.83435L6.988 3.59646C6.05148 3.46392 5.19017 4.08993 5.02677 5.02141L4.73334 6.69432C4.70166 6.87478 4.59068 7.02755 4.42885 7.11345L2.92847 7.90954C2.09309 8.35273 1.76403 9.3655 2.17934 10.2151L2.92523 11.7411C3.0057 11.9057 3.0057 12.0945 2.92523 12.2591L2.1793 13.7851C1.764 14.6347 2.09305 15.6474 2.92844 16.0906L4.42881 16.8867C4.59068 16.9726 4.70166 17.1254 4.73334 17.3058L5.02677 18.9788C5.17552 19.8267 5.90262 20.4214 6.73827 20.4213C6.82058 20.4213 6.90409 20.4156 6.98804 20.4037L8.66977 20.1658C8.85114 20.1401 9.03075 20.1985 9.16246 20.3259L10.3832 21.5068C10.7231 21.8357 11.1591 22 11.5953 22C12.0313 22 12.4676 21.8356 12.8074 21.5068L14.0281 20.3259C14.1599 20.1985 14.3394 20.1403 14.5208 20.1658L16.2026 20.4037C17.1392 20.5362 18.0004 19.9102 18.1638 18.9787L18.4573 17.3058C18.489 17.1254 18.5999 16.9726 18.7618 16.8867L20.2621 16.0906C21.0975 15.6474 21.4266 14.6347 21.0113 13.785L20.2653 12.2591ZM9.28824 6.80924C10.4543 6.80924 11.403 7.75794 11.403 8.92402C11.403 10.0901 10.4543 11.0388 9.28824 11.0388C8.12216 11.0388 7.17346 10.0901 7.17346 8.92402C7.17346 7.75794 8.12216 6.80924 9.28824 6.80924ZM8.19669 16.2142C8.08408 16.3268 7.93646 16.3831 7.78889 16.3831C7.64131 16.3831 7.49366 16.3269 7.38108 16.2142C7.15585 15.989 7.15585 15.6238 7.38108 15.3986L14.9938 7.78579C15.219 7.56056 15.5843 7.56056 15.8095 7.78579C16.0347 8.01102 16.0347 8.37621 15.8095 8.60144L8.19669 16.2142ZM13.9023 17.1908C12.7362 17.1908 11.7875 16.2421 11.7875 15.0761C11.7875 13.91 12.7362 12.9613 13.9023 12.9613C15.0683 12.9613 16.017 13.91 16.017 15.0761C16.017 16.2421 15.0683 17.1908 13.9023 17.1908Z" fill="#4fbf8b"/>
<path d="M13.9023 14.1148C13.3722 14.1148 12.941 14.546 12.941 15.0761C12.941 15.6061 13.3722 16.0373 13.9023 16.0373C14.4323 16.0373 14.8635 15.6061 14.8635 15.0761C14.8635 14.546 14.4323 14.1148 13.9023 14.1148Z" fill="#4fbf8b"/>
<path d="M9.28824 7.96274C8.75821 7.96274 8.327 8.39394 8.327 8.92398C8.327 9.45401 8.75821 9.88525 9.28824 9.88525C9.81828 9.88525 10.2495 9.45405 10.2495 8.92398C10.2495 8.39398 9.81828 7.96274 9.28824 7.96274Z" fill="#4fbf8b"/>
</svg>
